<?xml version="1.0" encoding="UTF-8" standalone="no"?>
<!-- Created with Inkscape (http://www.inkscape.org/) -->

<svg
   xmlns:dc="http://purl.org/dc/elements/1.1/"
   xmlns:cc="http://creativecommons.org/ns#"
   xmlns:rdf="http://www.w3.org/1999/02/22-rdf-syntax-ns#"
   xmlns:svg="http://www.w3.org/2000/svg"
   xmlns="http://www.w3.org/2000/svg"
   xmlns:sodipodi="http://sodipodi.sourceforge.net/DTD/sodipodi-0.dtd"
   xmlns:inkscape="http://www.inkscape.org/namespaces/inkscape"
   width="178"
   height="72"
   viewBox="0 0 47.095834 19.05"
   version="1.1"
   id="svg8"
   inkscape:version="0.92.4 (5da689c313, 2019-01-14)"
   sodipodi:docname="pattern.svg">
  <defs
     id="defs2" />
  <sodipodi:namedview
     id="base"
     pagecolor="#ffffff"
     bordercolor="#666666"
     borderopacity="1.0"
     inkscape:pageopacity="0.0"
     inkscape:pageshadow="2"
     inkscape:zoom="1.1607422"
     inkscape:cx="310.69286"
     inkscape:cy="-166.55946"
     inkscape:document-units="mm"
     inkscape:current-layer="layer1"
     showgrid="false"
     units="px"
     fit-margin-top="20"
     fit-margin-left="20"
     fit-margin-right="0"
     fit-margin-bottom="20"
     inkscape:window-width="1920"
     inkscape:window-height="1010"
     inkscape:window-x="0"
     inkscape:window-y="28"
     inkscape:window-maximized="1" />
  <metadata
     id="metadata5">
    <rdf:RDF>
      <cc:Work
         rdf:about="">
        <dc:format>image/svg+xml</dc:format>
        <dc:type
           rdf:resource="http://purl.org/dc/dcmitype/StillImage" />
        <dc:title></dc:title>
      </cc:Work>
    </rdf:RDF>
  </metadata>
  <g
     inkscape:label="Layer 1"
     inkscape:groupmode="layer"
     id="layer1"
     transform="translate(-2.2657264,-103.94991)"
     style="fill:rgba(0, 255, 0, .1);">
    <path
       inkscape:connector-curvature="0"
       id="path877"
       d="m 9.4200628,112.63883 q -0.03175,0.17992 -0.116416,0.41275 -0.07408,0.23283 -0.232834,0.43392 -0.148166,0.20108 -0.381,0.33866 -0.232833,0.13759 -0.560916,0.13759 -0.28575,0 -0.529167,-0.10584 -0.232833,-0.11641 -0.4550829,-0.254 -0.254,-0.14816 -0.486834,-0.29633 -0.232833,-0.14817 -0.508,-0.14817 -0.148166,0 -0.254,0.0741 -0.105833,0.0635 -0.179916,0.16933 -0.0635,0.10583 -0.116417,0.24342 -0.05292,0.127 -0.08467,0.24341 l -0.60325,-0.16933 q 0.03175,-0.17992 0.116417,-0.41275 0.08467,-0.23283 0.232833,-0.43392 0.148167,-0.20108 0.370417,-0.33866 0.232833,-0.13759 0.5715,-0.13759 0.28575,0 0.518583,0.11642 0.243417,0.10583 0.465667,0.24342 0.2539999,0.14816 0.4868329,0.29633 0.243417,0.14817 0.508,0.14817 0.148167,0 0.254,-0.0635 0.105834,-0.0741 0.169334,-0.17992 0.07408,-0.10583 0.127,-0.23283 0.05292,-0.13759 0.08467,-0.254 z" />
    <path
       inkscape:connector-curvature="0"
       id="path879"
       d="m 14.351897,115.82441 q -0.28575,0.0741 -0.762,0.15875 -0.465666,0.0952 -1.100666,0.0952 -0.433917,0 -0.677333,-0.0952 -0.232835,-0.0953 -0.412751,-0.254 0.03175,0.24342 0.03175,0.48684 0.01058,0.24341 0.01058,0.51858 v 0.97367 h -0.878414 v -6.65692 h 0.878417 v 2.57175 q 0,0.45508 0.05292,0.77258 0.0635,0.3175 0.190501,0.51859 0.137583,0.20108 0.34925,0.29633 0.22225,0.0847 0.53975,0.0847 0.137583,0 0.275166,-0.0106 0.148167,-0.0106 0.275167,-0.0212 0.127,-0.0106 0.22225,-0.0212 0.09525,-0.0212 0.127,-0.0318 v -4.15925 H 14.3519 Z" />
    <path
       inkscape:connector-curvature="0"
       id="path881"
       d="m 25.295063,112.63883 q -0.03175,0.17992 -0.116416,0.41275 -0.07408,0.23283 -0.232834,0.43392 -0.148166,0.20108 -0.381,0.33866 -0.232833,0.13759 -0.560916,0.13759 -0.28575,0 -0.529167,-0.10584 -0.232833,-0.11641 -0.455083,-0.254 -0.254,-0.14816 -0.486834,-0.29633 -0.232833,-0.14817 -0.508,-0.14817 -0.148166,0 -0.254,0.0741 -0.105833,0.0635 -0.179916,0.16933 -0.0635,0.10583 -0.116417,0.24342 -0.05292,0.127 -0.08467,0.24341 l -0.60325,-0.16933 q 0.03175,-0.17992 0.116417,-0.41275 0.08467,-0.23283 0.232833,-0.43392 0.148167,-0.20108 0.370417,-0.33866 0.232833,-0.13759 0.5715,-0.13759 0.28575,0 0.518583,0.11642 0.243417,0.10583 0.465667,0.24342 0.254,0.14816 0.486833,0.29633 0.243417,0.14817 0.508,0.14817 0.148167,0 0.254,-0.0635 0.105834,-0.0741 0.169334,-0.17992 0.07408,-0.10583 0.127,-0.23283 0.05292,-0.13759 0.08467,-0.254 z" />
    <path
       inkscape:connector-curvature="0"
       id="path883"
       d="M 30.226896,115.962 H 29.34848 v -4.18042 h -2.032 v 4.18042 h -0.878417 v -4.91067 h 3.788833 z" />
    <path
       inkscape:connector-curvature="0"
       id="path885"
       d="m 41.170063,112.63883 q -0.03175,0.17992 -0.116417,0.41275 -0.07408,0.23283 -0.232833,0.43392 -0.148167,0.20108 -0.381,0.33866 -0.232833,0.13759 -0.560917,0.13759 -0.28575,0 -0.529166,-0.10584 -0.232834,-0.11641 -0.455084,-0.254 -0.254,-0.14816 -0.486833,-0.29633 -0.232833,-0.14817 -0.508,-0.14817 -0.148167,0 -0.254,0.0741 -0.105833,0.0635 -0.179917,0.16933 -0.0635,0.10583 -0.116416,0.24342 -0.05292,0.127 -0.08467,0.24341 l -0.60325,-0.16933 q 0.03175,-0.17992 0.116417,-0.41275 0.08467,-0.23283 0.232833,-0.43392 0.148167,-0.20108 0.370417,-0.33866 0.232833,-0.13759 0.5715,-0.13759 0.28575,0 0.518583,0.11642 0.243417,0.10583 0.465667,0.24342 0.254,0.14816 0.486833,0.29633 0.243417,0.14817 0.508,0.14817 0.148167,0 0.254,-0.0635 0.105833,-0.0741 0.169333,-0.17992 0.07408,-0.10583 0.127,-0.23283 0.05292,-0.13759 0.08467,-0.254 z" />
    <path
       inkscape:connector-curvature="0"
       id="path887"
       d="m 46.101896,111.009 v 4.953 H 45.22348 v -3.048 h -2.032 v 3.048 h -0.878417 v -4.953 h -0.560917 v -0.64559 h 0.560917 v -0.9525 h 0.878417 v 0.9525 h 2.032 v -0.9525 h 0.878416 v 0.9525 h 0.560917 v 0.64559 z m -0.878416,0 h -2.032 v 1.16416 h 2.032 z" />
  </g>
</svg>
