<?xml version="1.0" encoding="UTF-8"?>
<svg width="480" height="480" version="1.1" viewBox="0 0 127 127" xmlns="http://www.w3.org/2000/svg">
 <path d="m8.4667 0h110.07c4.6906 0 8.4667 3.7761 8.4667 8.4667v110.07c0 4.6906-3.7762 8.4667-8.4667 8.4667h-110.07c-4.6906 0-8.4667-3.7762-8.4667-8.4667v-110.07c0-4.6906 3.7761-8.4667 8.4667-8.4667z" stroke-width=".33928"/>
 <g transform="matrix(8.8383 0 0 8.8383 8.5478 87.622)" fill="#fff" style="font-variant-caps:normal;font-variant-east-asian:normal;font-variant-ligatures:normal;font-variant-numeric:normal;shape-inside:url(#rect835);white-space:pre" aria-label="~μ">
  <path d="m0.6879-2.6987v-0.74081q0-0.6244 0.3704-0.9948 0.38099-0.38099 1.0054-0.38099 0.32807 0 0.57148 0.10583 0.24341 0.095247 0.42332 0.25399 0.19049 0.14816 0.32807 0.32807 0.14816 0.17991 0.27516 0.33866 0.13758 0.14816 0.27516 0.25399 0.14816 0.095247 0.32807 0.095247 0.4974 0 0.4974-0.58206v-0.74081h0.89956v0.74081q0 0.61381-0.38099 0.9948-0.3704 0.38099-0.9948 0.38099-0.32807 0-0.57148-0.095247-0.24341-0.10583-0.4339-0.25399-0.17991-0.15874-0.32807-0.33866-0.13758-0.17991-0.27516-0.32807-0.127-0.15874-0.27516-0.25399-0.13758-0.10583-0.31749-0.10583-0.4974 0-0.4974 0.58206v0.74081z" style="font-variant-caps:normal;font-variant-east-asian:normal;font-variant-ligatures:normal;font-variant-numeric:normal"/>
  <path d="m8.2547-5.8207v3.7675q0 0.63498 0.29632 0.98422 0.29632 0.33866 0.96305 0.33866 0.66673 0 0.97364-0.33866 0.30691-0.34924 0.30691-0.98422v-3.7675h0.95247v3.7675q0 1.0266-0.5609 1.598-0.55032 0.5609-1.5663 0.5609-0.51857 0-0.83606-0.127t-0.4974-0.28574q-0.20108-0.16933-0.29632-0.40215h-0.042332q0.010583 0 0.031749 0.084664 0.031749 0.084664 0.052915 0.21166 0.031749 0.127 0.052915 0.27516 0.031749 0.14816 0.042332 0.27516l0.11641 1.6615h-0.94189v-7.6198z" style="font-variant-caps:normal;font-variant-east-asian:normal;font-variant-ligatures:normal;font-variant-numeric:normal"/>
 </g>
</svg>
